<?xml version="1.0" encoding="UTF-8"?>
<svg width="25px" height="17px" viewBox="0 0 25 17" version="1.1" xmlns="http://www.w3.org/2000/svg" xmlns:xlink="http://www.w3.org/1999/xlink">
    <!-- Generator: Sketch 42 (36781) - http://www.bohemiancoding.com/sketch -->
    <title>mail1</title>
    <desc>Created with Sketch.</desc>
    <defs></defs>
    <g id="GRAFIKA" stroke="none" stroke-width="1" fill="none" fill-rule="evenodd">
        <g id="strona-główna-" transform="translate(-399.000000, -2266.000000)" stroke="#FFDA1A" fill="#FFDA1A">
            <g id="stopka" transform="translate(-5.000000, 1958.000000)">
                <path d="M427.467719,322.604735 L420.778336,317.550933 L416.657102,320.664275 C416.567432,320.736011 416.438307,320.739598 416.341463,320.667862 L412.216643,317.550933 L405.530846,322.604735 C405.563128,322.827116 405.667145,323.027977 405.817791,323.178623 L405.821377,323.178623 C406.007891,323.365136 406.266141,323.479914 406.549498,323.479914 L426.445481,323.479914 C426.728838,323.479914 426.987088,323.365136 427.173601,323.178623 C427.327834,323.027977 427.431851,322.827116 427.467719,322.604735 Z M420.620516,317.020086 L416.499283,320.137016 L412.378049,317.023673 L412.367288,317.016499 L405.516499,311.837159 L405.516499,310.553085 C405.516499,310.266141 405.631277,310.007891 405.821377,309.821377 C406.007891,309.634864 406.266141,309.516499 406.549498,309.516499 L426.445481,309.516499 C426.728838,309.516499 426.987088,309.631277 427.173601,309.821377 C427.363702,310.007891 427.478479,310.266141 427.478479,310.553085 L427.478479,311.837159 L420.62769,317.016499 L420.620516,317.020086 Z M421.205165,317.224534 L427.478479,312.482783 L427.478479,321.966284 L421.205165,317.224534 Z M405.516499,312.482783 L411.789813,317.224534 L405.516499,321.966284 L405.516499,312.482783 Z M406.549498,309 L426.445481,309 C426.87231,309 427.259684,309.175753 427.539455,309.455524 L427.543042,309.455524 C427.822812,309.735294 427.994978,310.126255 427.994978,310.553085 L427.994978,322.446915 C427.994978,322.873745 427.822812,323.261119 427.543042,323.544476 C427.259684,323.824247 426.87231,324 426.445481,324 L406.549498,324 C406.126255,324 405.738881,323.824247 405.45911,323.544476 L405.455524,323.544476 C405.172166,323.261119 405,322.873745 405,322.446915 L405,310.553085 C405,310.122669 405.172166,309.735294 405.455524,309.455524 C405.735294,309.175753 406.122669,309 406.549498,309 L406.549498,309 Z" id="mail1"></path>
            </g>
        </g>
    </g>
</svg>