<svg width="62" height="62" xmlns="http://www.w3.org/2000/svg"><g stroke-width="1.5" stroke="#2D5898" fill="none" fill-rule="evenodd"><path d="M4.188 14.255h53.068c1.752 0 3.295 1.457 3.184 3.23l-.531 8.403c-.11 1.77-1.434 3.228-3.183 3.228H4.72c-1.75 0-3.072-1.456-3.184-3.228l-.53-8.403c-.113-1.773 1.432-3.23 3.182-3.23zm3.317 14.861H53.94c1.534 0 2.883 1.457 2.787 3.23l-.465 25.122c-.097 1.77-1.255 3.229-2.785 3.229H7.97c-1.531 0-2.688-1.457-2.786-3.229L4.72 32.347c-.098-1.774 1.254-3.23 2.785-3.23z"/><path d="M30.723 14.506v46.191-46.191zm-.34-.598c-13.755-30.045-41.052 2.056 0 0 32.02-.796 11.82-22.082 1.144-3.49-.33.572-.9 2.828-1.143 3.49z" stroke-linecap="round" stroke-linejoin="round"/></g></svg>