<svg width="71" height="60" xmlns="http://www.w3.org/2000/svg"><path d="M52.482 31.217c2.311 0 4.393.926 5.897 2.441a8.259 8.259 0 0 1 2.442 5.886c0 .327-.011.643-.055.96l4.927 8.534h.065c.861 0 1.646-.349 2.213-.916a3.132 3.132 0 0 0 .926-2.223V4.709c0-.861-.348-1.646-.915-2.224h-.011a3.123 3.123 0 0 0-2.213-.915H4.72a3.13 3.13 0 0 0-2.224.915A3.178 3.178 0 0 0 1.57 4.71V45.9c0 .861.348 1.646.926 2.223a3.13 3.13 0 0 0 2.224.916h34.552l4.927-8.534a8.268 8.268 0 0 1 2.398-6.845 8.259 8.259 0 0 1 5.885-2.442zm14.083 19.325l1.907 3.303a.81.81 0 0 1 .11.578.784.784 0 0 1-.927.61l-5.81-1.21-1.853 5.635a.762.762 0 0 1-.348.436.794.794 0 0 1-1.08-.283l-6.082-10.54-6.07 10.54a.799.799 0 0 1-1.08.283.762.762 0 0 1-.349-.436l-1.853-5.635-5.81 1.21a.784.784 0 0 1-.926-.61.719.719 0 0 1 .088-.545l1.885-3.27H4.72a4.696 4.696 0 0 1-3.336-1.385l-.01-.01A4.68 4.68 0 0 1 0 45.898V4.709c0-1.297.534-2.475 1.384-3.336A4.694 4.694 0 0 1 4.72 0h61.038c1.297 0 2.475.523 3.325 1.373v.011a4.652 4.652 0 0 1 1.384 3.325v41.19a4.652 4.652 0 0 1-1.384 3.324 4.668 4.668 0 0 1-2.518 1.32zm-26.138-.37l4.327-7.489a8.332 8.332 0 0 0 1.843 2.758 8.258 8.258 0 0 0 3.967 2.224l.044.01.032.011c.098.022.197.044.295.055l.076.01.01.012.066.01.087.012.044.01h.033l.065.011h.011l.076.011-5.482 9.483-1.515-4.632a.795.795 0 0 0-.938-.524l-4.752.992 1.657-2.866c.022-.044.043-.066.054-.098zm24.187.109l1.646 2.855-4.753-.992a.79.79 0 0 0-.937.524L59.055 57.3l-5.483-9.483a8.25 8.25 0 0 0 4.807-2.376 8.268 8.268 0 0 0 1.842-2.768l4.306 7.477a.91.91 0 0 0 .087.13zM49.06 19.925a.789.789 0 1 1 0 1.58H21.418a.782.782 0 0 1-.785-.785.79.79 0 0 1 .785-.795H49.06zm-35.566-7.15a.796.796 0 0 1-.785-.785c0-.436.36-.796.785-.796h43.48c.424 0 .784.36.784.796 0 .425-.36.785-.785.785h-43.48zm21.745 18.464c.425 0 .785.36.785.795 0 .426-.36.785-.785.785H13.494a.796.796 0 0 1-.785-.785c0-.436.36-.795.785-.795h21.745zm-21.745 8.164a.788.788 0 0 1-.785-.785c0-.436.36-.785.785-.785h21.745c.425 0 .785.349.785.785 0 .436-.36.785-.785.785H13.494zm43.773-4.633a6.746 6.746 0 0 1 0 9.56 6.747 6.747 0 0 1-3.586 1.885h-.032l-.044.01h-.033l-.054.012h-.022l-.065.01h-.011l-.066.023h-.087l-.076.01h-.011l-.065.011h-.077l-.087.011h-.153l-.054.011h-.523l-.055-.01h-.109l-.12-.012h-.076l-.065-.01h-.011l-.077-.011h-.086l-.066-.022h-.011l-.065-.011h-.022l-.055-.011h-.032l-.044-.011h-.044a6.787 6.787 0 0 1-3.586-1.886 6.736 6.736 0 0 1-1.972-4.785 6.73 6.73 0 0 1 1.972-4.774 6.784 6.784 0 0 1 4.785-1.984c1.875 0 3.565.763 4.785 1.984z" fill="#2D5898" fill-rule="evenodd"/></svg>