<svg width="25" height="17" xmlns="http://www.w3.org/2000/svg"><path d="M23.468 14.605l-6.69-5.054-4.12 3.113a.258.258 0 0 1-.317.004L8.217 9.55 1.53 14.605c.032.222.136.423.287.574h.003c.187.186.445.3.728.3h19.896c.284 0 .542-.114.729-.3a1.03 1.03 0 0 0 .294-.574zM16.62 9.02l-4.122 3.117-4.121-3.113-.01-.008-6.852-5.179V2.553c0-.287.115-.545.305-.732a1.03 1.03 0 0 1 .728-.305h19.896c.284 0 .542.115.729.305.19.187.304.445.304.732v1.284l-6.85 5.18-.007.003zm.584.205l6.273-4.742v9.483l-6.273-4.741zM1.516 4.483L7.79 9.225l-6.274 4.741V4.483zM2.55 1h19.896c.427 0 .815.176 1.094.456h.004c.28.28.452.67.452 1.097v11.894c0 .427-.172.814-.452 1.097a1.56 1.56 0 0 1-1.098.456H2.55c-.423 0-.81-.176-1.09-.456h-.003A1.545 1.545 0 0 1 1 14.447V2.553c0-.43.172-.818.456-1.097.28-.28.667-.456 1.093-.456h0z" stroke="#FFDA1A" fill="#FFDA1A" fill-rule="evenodd"/></svg>