<svg width="24" height="24" xmlns="http://www.w3.org/2000/svg"><path d="M1.286 15.955H8.04v6.76c0 .158.13.285.29.285h7.334c.16 0 .29-.127.29-.286v-6.759h6.755c.159 0 .29-.127.29-.286V8.331a.288.288 0 0 0-.29-.286h-6.755v-6.76a.288.288 0 0 0-.29-.285H8.331a.288.288 0 0 0-.29.286v6.759H1.286A.285.285 0 0 0 1 8.33v7.338c0 .16.127.286.286.286zm7.045-.572H1.57V8.617h6.76a.285.285 0 0 0 .286-.286V1.57h6.762v6.76c0 .159.131.286.286.286h6.76v6.766h-6.76a.287.287 0 0 0-.286.286v6.76H8.617v-6.76a.285.285 0 0 0-.286-.286h0z" stroke-width=".5" stroke="#FFDA1A" fill="#FFDA1A" fill-rule="evenodd"/></svg>