<svg width="23" height="22" xmlns="http://www.w3.org/2000/svg"><path d="M6.664 16.865c.4 0 .764.165 1.03.428a1.455 1.455 0 0 1 0 2.062l-.017.014a1.455 1.455 0 0 1-2.472-1.045 1.452 1.452 0 0 1 1.459-1.459zm4.408-9.205v-.042a.251.251 0 0 0-.253-.253h-8.3A1.524 1.524 0 0 0 1 8.88L.999 19.485A1.515 1.515 0 0 0 2.517 21h8.301c.14 0 .253-.112.253-.252v-.232h5.692a5.55 5.55 0 0 0 3.941-1.638 5.564 5.564 0 0 0 1.638-3.941v-4.98c0-.418-.168-.793-.442-1.07h-.003v-.003a1.52 1.52 0 0 0-1.073-.446h-4.156l.793-5.713a1.568 1.568 0 0 0-.046-.641 1.447 1.447 0 0 0-.316-.561 1.508 1.508 0 0 0-.512-.39 1.532 1.532 0 0 0-.63-.133h-.505a1.493 1.493 0 0 0-1.343.817L11.072 7.66zm3.482-5.608a.988.988 0 0 1 .898-.547h.505c.154 0 .295.032.42.088h.004a1.073 1.073 0 0 1 .551.634 1 1 0 0 1 .028.428l-.828 6a.25.25 0 0 0 .214.288h4.479c.28 0 .533.116.715.298a.995.995 0 0 1 .298.716v4.98a5.061 5.061 0 0 1-1.49 3.584 5.061 5.061 0 0 1-3.584 1.49h-5.692V8.754l3.482-6.702zm-3.987 5.815H2.518a.995.995 0 0 0-.715.298 1.01 1.01 0 0 0-.298.715v10.605c0 .28.116.533.298.715a.995.995 0 0 0 .715.299h8.049V7.867zm-3.23 9.784a.952.952 0 0 0-1.627.673.949.949 0 0 0 .954.954.957.957 0 0 0 .662-.266l.011-.014a.949.949 0 0 0 .277-.674.949.949 0 0 0-.277-.673h0z" stroke-width=".5" stroke="#FFDA1A" fill="#FFDA1A" fill-rule="evenodd"/></svg>