<svg width="27" height="22" xmlns="http://www.w3.org/2000/svg"><path d="M13.52 20.328a78.145 78.145 0 0 1 2.273-1.62c4.123-2.877 9.643-6.734 9.643-10.816 0-2.49-1.11-4.286-2.647-5.304a5.993 5.993 0 0 0-2.606-.948 5.854 5.854 0 0 0-2.74.32c-1.67.62-3.092 2.062-3.632 4.398a.298.298 0 0 1-.358.224.3.3 0 0 1-.229-.228c-.536-2.332-1.957-3.774-3.632-4.394a5.854 5.854 0 0 0-2.74-.32 6.012 6.012 0 0 0-2.606.948C2.708 3.606 1.6 5.402 1.6 7.892c0 4.082 5.524 7.939 9.643 10.815a78.694 78.694 0 0 1 2.278 1.621zm2.614-1.135c-.902.636-1.742 1.218-2.436 1.746a.3.3 0 0 1-.361 0c-.69-.524-1.53-1.11-2.436-1.746C6.67 16.243 1 12.285 1 7.892c0-2.714 1.222-4.68 2.918-5.803a6.652 6.652 0 0 1 2.868-1.043 6.476 6.476 0 0 1 3.013.353c1.6.595 2.993 1.858 3.72 3.84.728-1.982 2.12-3.245 3.717-3.84a6.493 6.493 0 0 1 3.017-.353c1.01.12 2 .474 2.868 1.047 1.696 1.118 2.914 3.085 2.914 5.799 0 4.393-5.67 8.35-9.901 11.301h0z" stroke-width=".5" stroke="#FFDA1A" fill="#FFDA1A" fill-rule="evenodd"/></svg>