<svg width="24" height="22" xmlns="http://www.w3.org/2000/svg"><path d="M1.492 7.695h21.289V6.653L12.137 1.52 1.492 6.653v1.042zM1.246 18.99H2.69V9.993h-.42a.245.245 0 0 1-.247-.246V8.191h-.776A.247.247 0 0 1 1 7.945v-1.45c0-.089.051-.178.137-.219L12.03 1.024a.25.25 0 0 1 .215 0L23.12 6.27a.241.241 0 0 1 .157.225v1.45a.25.25 0 0 1-.25.246h-.776v1.556c0 .137-.11.246-.243.246h-.42v8.996h1.44c.136 0 .249.113.249.25v1.515a.248.248 0 0 1-.25.246H1.247A.245.245 0 0 1 1 20.754v-1.515c0-.137.11-.25.246-.25zM7.6 8.191v1.556c0 .137-.11.246-.242.246h-.421v8.996h3.077V9.993h-.42a.244.244 0 0 1-.243-.246V8.191H7.6zm7.324 0v1.556a.242.242 0 0 1-.242.246h-.42v8.996h3.076V9.993h-.42a.242.242 0 0 1-.24-.246V8.191h-1.754zm2.24 1.31h4.602V8.188h-4.602V9.5zm-7.327 0h4.602V8.188H9.836V9.5zm-7.328 0H7.11V8.188H2.508V9.5zm.674 9.488h3.262v-9H3.182v9zm7.324 0h3.262v-9h-3.262v9zm7.327 0h3.262v-9h-3.262v9zm-16.34 1.519h21.291v-1.026H1.492v1.026z" stroke-width=".5" stroke="#FFDA1A" fill="#FFDA1A" fill-rule="evenodd"/></svg>