<svg width="60" height="60" xmlns="http://www.w3.org/2000/svg"><path d="M44.992 4.027a30.039 30.039 0 0 1 8.815 7.722 29.931 29.931 0 0 1 5.164 10.49 29.983 29.983 0 0 1 .782 11.622c0 .04-.01.07-.02.11a29.972 29.972 0 0 1-3.76 11.021 29.895 29.895 0 0 1-7.722 8.815 29.685 29.685 0 0 1-10.46 5.154l-.04.01a29.77 29.77 0 0 1-11.652.772 29.84 29.84 0 0 1-11.091-3.77 29.895 29.895 0 0 1-13.98-18.211 29.808 29.808 0 0 1-.771-11.663 29.14 29.14 0 0 1 1.023-4.753c.01-.02.01-.05.02-.08a30.267 30.267 0 0 1 2.727-6.268l.02-.03a30.13 30.13 0 0 1 7.702-8.785A29.922 29.922 0 0 1 15.7 3.626c.02-.01.04-.03.06-.03a29.983 29.983 0 0 1 6.478-2.567 29.808 29.808 0 0 1 14.35-.29c.04 0 .07.01.1.02a29.868 29.868 0 0 1 8.304 3.268zM9.974 44l6.177-3.5.421-11.512-6.016-7.45-6.027 3.459-1.364 10.98L9.974 44zm6.86-2.226l-6.068 3.44 4.533 9.115 9.928.06 1.002-6.608-9.396-6.007zm.04-31.037L15.59 5.341a30.079 30.079 0 0 0-2.969 1.996 28.833 28.833 0 0 0-7.33 8.343l-.02.04a29.433 29.433 0 0 0-2.507 5.696l1.343 2.156 6.118-3.52 6.648-9.316zm.03-6.117l1.343 5.636 9.376 1.454 9.557-4.222-1.294-5.435a32.672 32.672 0 0 0-2.166-.371 28.515 28.515 0 0 0-11.11.742 29.114 29.114 0 0 0-5.707 2.196zm10.128 8.464l-9.056-1.414-6.347 8.905 5.856 7.25 9.918-5.255-.371-9.486zm-1.284 42.75l-8.012-.05a28.892 28.892 0 0 0 8.544 2.536c2.687.351 5.445.321 8.233-.13l-8.765-2.357zm-12.756-2.899l-3.79-7.611-6.8-8.002.02.07a28.544 28.544 0 0 0 4.915 9.988 28.811 28.811 0 0 0 5.655 5.555zm-11.14-18.15l1.263-10.079-.873-1.404c-.24.983-.43 1.976-.561 2.979a28.514 28.514 0 0 0 .17 8.503zm26.253-10.961l-10.099 5.365-.42 11.362 9.466 6.046 10.369-5.314.662-11.232-9.978-6.227zM37.942 8.73l-9.476 4.192.37 9.657 10.069 6.268 8.624-3.56.03-9.908-9.617-6.649zm-.481-6.297l1.193 5.044 9.738 6.729 4.392-1.424-.12-.16A28.65 28.65 0 0 0 44.28 5.27a28.832 28.832 0 0 0-6.82-2.838zm16.205 11.582l-4.673 1.504-.02 10.069 4.743 8.644 4.663-1.013c.392-3.45.15-7.04-.802-10.61a28.54 28.54 0 0 0-3.91-8.594zm-1.163 21.01L47.93 26.68l-8.403 3.47-.662 11.07 8.072 2.588 5.566-8.785zm-6.167 17.518l-4.613 3.49a28.49 28.49 0 0 0 5.285-3.089l-.672-.4zm.12-7.37l-8.283-2.668-10.5 5.395-1.012 6.679 10.76 2.908 8.183-6.207.852-6.108zm11.703-10.43l-4.372.953-5.837 9.226-.892 6.378 1.173.682a28.677 28.677 0 0 0 6.498-7.712 28.619 28.619 0 0 0 3.43-9.527z" fill="#2D5898" fill-rule="evenodd"/></svg>