<svg width="18" height="22" xmlns="http://www.w3.org/2000/svg"><path d="M8.784 20.921c-.63-.735-1.331-1.512-2.057-2.315-1.533-1.699-3.162-3.5-4.279-5.083v-.003.003a8.174 8.174 0 0 1-1.08-2.186 7.936 7.936 0 0 1 1.96-8.01A7.924 7.924 0 0 1 8.949 1c2.195 0 4.182.888 5.622 2.328a7.936 7.936 0 0 1 2.327 5.621 7.93 7.93 0 0 1-1.448 4.574c-1.117 1.584-2.746 3.387-4.279 5.086-.725.8-1.427 1.58-2.056 2.315a.219.219 0 0 1-.307.024.195.195 0 0 1-.024-.027zm.165-15.495A3.519 3.519 0 0 0 5.426 8.95c0 .97.395 1.852 1.033 2.49a3.506 3.506 0 0 0 2.49 1.03c.973 0 1.855-.391 2.49-1.03a3.509 3.509 0 0 0 1.033-2.49v-.003c0-.972-.394-1.852-1.033-2.49a3.514 3.514 0 0 0-2.49-1.03zm-2.797.723a3.948 3.948 0 0 0-1.16 2.8 3.954 3.954 0 0 0 3.957 3.957 3.948 3.948 0 0 0 2.797-1.16 3.941 3.941 0 0 0 1.16-2.797v-.003c0-1.09-.443-2.08-1.16-2.797A3.946 3.946 0 0 0 8.95 4.993a3.95 3.95 0 0 0-2.797 1.156zm.894 12.167c.675.744 1.328 1.47 1.903 2.135.575-.665 1.229-1.39 1.903-2.132 1.52-1.686 3.138-3.477 4.243-5.046a7.5 7.5 0 0 0 1.37-4.324 7.493 7.493 0 0 0-2.201-5.314 7.504 7.504 0 0 0-5.315-2.201 7.504 7.504 0 0 0-5.314 2.2A7.493 7.493 0 0 0 1.434 8.95c0 .783.117 1.539.346 2.258a7.688 7.688 0 0 0 1.024 2.066c1.105 1.569 2.722 3.357 4.242 5.043h0z" stroke="#FFDA1A" fill="#FFDA1A" fill-rule="evenodd"/></svg>