<svg width="17" height="22" xmlns="http://www.w3.org/2000/svg"><path d="M4.502 13.625L1.049 18a.234.234 0 0 0 .038.326l2.635 2.109a2.578 2.578 0 0 0 1.883.551 2.571 2.571 0 0 0 1.73-.932 52.056 52.056 0 0 0 4.77-6.91 52.067 52.067 0 0 0 3.598-7.583 2.567 2.567 0 0 0-.058-1.963 2.58 2.58 0 0 0-1.422-1.358l-3.144-1.225a.232.232 0 0 0-.3.132v.007L8.713 6.335a.237.237 0 0 0 .132.303l1.76.687a49.217 49.217 0 0 1-1.98 3.811l-.006.013a47.34 47.34 0 0 1-2.305 3.608l-1.474-1.18a.23.23 0 0 0-.325.035l-.013.013zm-2.944 4.482l3.173-4.02 1.483 1.186.01.01a.233.233 0 0 0 .325-.055 47.716 47.716 0 0 0 2.47-3.847l.006-.013a47.755 47.755 0 0 0 2.103-4.072l.006-.016a.23.23 0 0 0-.132-.3l-1.77-.69 1.896-4.759 2.93 1.142a2.126 2.126 0 0 1 1.212 2.724 51.507 51.507 0 0 1-3.568 7.516 51.37 51.37 0 0 1-4.727 6.848c-.368.448-.88.71-1.416.764a2.11 2.11 0 0 1-1.547-.451l-2.454-1.967zm9.57-10.811l.003-.003-.003.003h0z" stroke="#FFDA1A" fill="#FFDA1A" fill-rule="evenodd"/></svg>