<?xml version="1.0"?>
<svg xmlns="http://www.w3.org/2000/svg" viewBox="0 0 50 50">
    <path style="text-indent:0;text-align:start;line-height:normal;text-transform:none;block-progression:tb;-inkscape-font-specification:Sans" d="M 25 1 C 20.099255 1 15.550683 2.4728893 11.75 5 L 4 5 A 1.0001 1.0001 0 0 0 3.90625 5 A 1.0001 1.0001 0 0 0 3.8125 5 A 1.0001 1.0001 0 0 0 3 6 L 3 15.375 C 1.7081993 18.320398 1 21.580809 1 25 C 1 28.419191 1.7081993 31.679602 3 34.625 L 3 48 A 1.0001 1.0001 0 0 0 4 49 L 46 49 A 1.0001 1.0001 0 0 0 47 48 L 47 34.625 C 48.291801 31.679602 49 28.419191 49 25 C 49 21.580809 48.291801 18.320398 47 15.375 L 47 6 A 1.0001 1.0001 0 0 0 46 5 L 38.25 5 C 34.449317 2.4728893 29.900745 1 25 1 z M 25 3 C 28.275346 3 31.394917 3.7198147 34.1875 5 L 15.8125 5 C 18.605083 3.7198147 21.724654 3 25 3 z M 5 7 L 9.15625 7 C 7.5773782 8.3917027 6.169179 9.991597 5 11.75 L 5 7 z M 12.375 7 L 22.03125 7 C 20.811102 7.9140426 20 9.3674374 20 11 C 20 13.749579 22.250421 16 25 16 C 27.749579 16 30 13.749579 30 11 C 30 9.3674374 29.188898 7.9140426 27.96875 7 L 37.625 7 C 38.620243 7.6988421 39.573325 8.4622534 40.4375 9.3125 C 39.784291 9.2160595 39.091067 9.381543 38.53125 9.8125 L 29.1875 17 L 20.8125 17 L 11.46875 9.8125 C 10.926254 9.395513 10.261438 9.2292802 9.625 9.3125 C 9.6046013 9.3151673 9.5828245 9.3093631 9.5625 9.3125 C 10.426675 8.4622534 11.379757 7.6988421 12.375 7 z M 40.84375 7 L 45 7 L 45 11.75 C 43.830821 9.991597 42.422622 8.3917027 40.84375 7 z M 25 8 C 26.668699 8 28 9.3313011 28 11 C 28 12.668699 26.668699 14 25 14 C 23.331301 14 22 12.668699 22 11 C 22 9.3313011 23.331301 8 25 8 z M 9.875 11.28125 C 10.004066 11.264425 10.135496 11.286987 10.25 11.375 L 19.875 18.78125 A 1.0001 1.0001 0 0 0 20.5 19 L 29.5 19 A 1.0001 1.0001 0 0 0 30.125 18.78125 L 39.75 11.375 C 39.977137 11.200146 40.293175 11.240329 40.46875 11.46875 C 40.643604 11.695887 40.601719 12.012702 40.375 12.1875 L 29.15625 20.8125 A 1.0001 1.0001 0 0 0 28.75 21.53125 L 28.25 29 A 1.0001 1.0001 0 0 0 28.40625 29.59375 L 36.25 42.53125 C 36.582741 43.081513 36.34904 43.736366 35.75 43.96875 C 35.311334 44.138442 34.828171 43.98138 34.5625 43.59375 L 27.875 32.5 A 1.0001 1.0001 0 0 0 27.03125 32 L 25.1875 32 A 1.0001 1.0001 0 0 0 24.90625 31.96875 A 1.0001 1.0001 0 0 0 24.8125 32 L 22.96875 32 A 1.0001 1.0001 0 0 0 22.125 32.5 L 15.4375 43.59375 C 15.171599 43.981712 14.687832 44.138625 14.25 43.96875 C 13.649745 43.736093 13.416663 43.081644 13.75 42.53125 L 21.59375 29.59375 A 1.0001 1.0001 0 0 0 21.75 29 L 21.25 21.53125 A 1.0001 1.0001 0 0 0 20.84375 20.8125 L 9.625 12.1875 C 9.3960734 12.011537 9.3552239 11.697758 9.53125 11.46875 C 9.6192316 11.354287 9.7459339 11.298075 9.875 11.28125 z M 7.46875 11.71875 C 7.4445771 12.499512 7.7535105 13.279525 8.40625 13.78125 L 12.59375 17 L 7.4375 17 C 6.0684372 17 4.9375 18.130937 4.9375 19.5 C 4.9375 20.869063 6.0684372 22 7.4375 22 L 19.125 22 L 19.28125 22.125 L 19.71875 28.8125 L 12.0625 41.5 C 11.870477 41.81706 11.75093 42.157007 11.6875 42.5 C 6.4137518 38.483251 3 32.150112 3 25 C 3 21.842272 3.6463462 18.834857 4.84375 16.125 A 1.0001 1.0001 0 0 0 4.875 16.09375 C 4.8940259 16.050916 4.9182092 16.01144 4.9375 15.96875 A 1.0001 1.0001 0 0 0 4.96875 15.875 C 5.6465022 14.392939 6.4944385 13.003194 7.46875 11.71875 z M 42.53125 11.71875 C 43.505562 13.003194 44.353498 14.392939 45.03125 15.875 A 1.0001 1.0001 0 0 0 45.15625 16.15625 C 45.165697 16.177703 45.17812 16.197261 45.1875 16.21875 A 1.0001 1.0001 0 0 0 45.21875 16.25 C 46.381195 18.926424 47 21.891454 47 25 C 47 28.187201 46.312744 31.207765 45.09375 33.9375 A 1.0001 1.0001 0 0 0 45.0625 34.03125 C 43.545612 37.387913 41.21 40.29312 38.3125 42.5 C 38.249203 42.157014 38.129241 41.817087 37.9375 41.5 L 30.28125 28.8125 L 30.71875 22.125 L 30.875 22 L 42.5625 22 C 43.931563 22 45.0625 20.869063 45.0625 19.5 C 45.0625 18.130937 43.931563 17 42.5625 17 L 37.40625 17 L 41.59375 13.78125 C 42.243719 13.280129 42.553109 12.497281 42.53125 11.71875 z M 7.4375 19 L 15.15625 19 A 1.0001 1.0001 0 0 0 15.21875 19 L 16.5 20 L 7.4375 20 C 7.1505628 20 6.9375 19.786937 6.9375 19.5 C 6.9375 19.213063 7.1505628 19 7.4375 19 z M 34.78125 19 L 34.8125 19 A 1.0043849 1.0043849 0 0 0 34.84375 19 L 42.5625 19 C 42.849437 19 43.0625 19.213063 43.0625 19.5 C 43.0625 19.786937 42.849437 20 42.5625 20 L 33.5 20 L 34.78125 19 z M 23.53125 34 L 24 34 L 24 45.8125 C 24 46.37753 23.56503 46.8125 23 46.8125 C 22.43497 46.8125 22 46.37753 22 45.8125 L 22 36.5625 L 23.53125 34 z M 26 34 L 26.46875 34 L 28 36.5625 L 28 45.8125 C 28 46.37753 27.56503 46.8125 27 46.8125 C 26.43497 46.8125 26 46.37753 26 45.8125 L 26 34 z M 5 38.25 C 7.538614 42.067984 11.134127 45.140027 15.375 47 L 5 47 L 5 38.25 z M 45 38.25 L 45 47 L 34.625 47 C 38.865873 45.140027 42.461386 42.067984 45 38.25 z M 20 39.90625 L 20 45.8125 C 20 46.023072 20.01997 46.238926 20.0625 46.4375 C 18.855707 46.158228 17.686428 45.779619 16.5625 45.3125 C 16.756558 45.146599 16.944363 44.967963 17.09375 44.75 A 1.0001 1.0001 0 0 0 17.125 44.6875 L 20 39.90625 z M 30 39.90625 L 32.875 44.6875 A 1.0001 1.0001 0 0 0 32.90625 44.75 C 33.055681 44.968026 33.243384 45.146671 33.4375 45.3125 C 32.313572 45.779619 31.144293 46.158228 29.9375 46.4375 C 29.98003 46.238926 30 46.023073 30 45.8125 L 30 39.90625 z"/>
</svg>
